<?xml version="1.0" standalone="no"?>
<!DOCTYPE svg PUBLIC "-//W3C//DTD SVG 1.1//EN" "http://www.w3.org/Graphics/SVG/1.1/DTD/svg11.dtd" >
<svg xmlns="http://www.w3.org/2000/svg">
<metadata></metadata>
<defs>
<font id="tide_sans600_bunny" horiz-adv-x="1374" >
<font-face units-per-em="2048" ascent="1638" descent="-410" />
<missing-glyph horiz-adv-x="675" />
<glyph unicode="&#xfb01;" horiz-adv-x="1511" d="M68 807v293h176v37q0 108 32.5 197t88 150t130 103t157 61t171.5 19q230 0 477 -131l-122 -274q-165 114 -328 114q-111 0 -184.5 -64.5t-73.5 -178.5v-33h794v-1100h-348v807h-446v-807h-348v807h-176z" />
<glyph unicode="&#xfb02;" horiz-adv-x="1509" d="M68 807v293h155v39q0 100 31.5 182.5t85 139t126 96t153 57.5t167.5 18q303 0 578 -233v-1399h-350v1274q-113 67 -209 67q-99 0 -166.5 -54.5t-67.5 -151.5v-35h238l-2 -293h-236v-807h-348v807h-155z" />
<glyph horiz-adv-x="0" />
<glyph horiz-adv-x="682" />
<glyph unicode=" "  horiz-adv-x="675" />
<glyph unicode="&#x09;" horiz-adv-x="675" />
<glyph unicode="&#xa0;" horiz-adv-x="675" />
<glyph unicode="!" horiz-adv-x="722" d="M160 1434h407l-45 -955h-325zM170 168q0 77 55.5 133.5t132.5 56.5q76 0 132.5 -56.5t56.5 -133.5q0 -79 -56.5 -135t-132.5 -56q-77 0 -132.5 56.5t-55.5 134.5z" />
<glyph unicode="&#x22;" horiz-adv-x="681" d="M43 1362v215h262v-215l-41 -227h-176zM377 1362v215h262v-215l-41 -227h-176z" />
<glyph unicode="#" horiz-adv-x="1550" d="M90 252v278h244l31 252h-213v277h247l33 254h287l-33 -254h262l33 254h287l-33 -254h229v-277h-264l-31 -252h234v-278h-268l-31 -252h-287l31 252h-262l-31 -252h-287l31 252h-209zM621 530h262l30 252h-262z" />
<glyph unicode="$" horiz-adv-x="1073" d="M70 336l96 242q167 -120 375 -132q61 -2 102 13.5t47 48.5q3 19 -6 32t-33 22t-45.5 14t-62.5 12.5t-66 13.5q-72 15 -130.5 41.5t-104.5 67.5t-66 101.5t-8 133.5q21 128 123.5 205.5t249.5 91.5l28 160l234 -41l-27 -141q118 -32 230 -101l-86 -227q-147 97 -287 100 q-152 5 -168 -63q-4 -18 1.5 -29.5t28.5 -20t38 -12t57 -11.5q37 -7 57 -11q77 -15 141 -42.5t116.5 -71t77 -109t11.5 -146.5q-21 -135 -126 -215.5t-257 -91.5l-26 -156l-234 39l23 144q-159 43 -303 139z" />
<glyph unicode="%" horiz-adv-x="1724" d="M90 1149q0 138 94 229.5t238 91.5q151 0 240.5 -94.5t89.5 -226.5q0 -140 -88.5 -230t-241.5 -90q-141 0 -236.5 88t-95.5 232zM238 0l925 1434h295l-926 -1434h-294zM287 1145q0 -54 38 -95.5t101 -41.5t100 41t37 96q0 56 -36.5 96.5t-100.5 40.5q-62 0 -100.5 -41 t-38.5 -96zM973 297q0 140 93.5 230.5t238.5 90.5q151 0 240 -94.5t89 -226.5q0 -139 -89 -229.5t-240 -90.5q-141 0 -236.5 88t-95.5 232zM1176 295q0 -54 36.5 -93.5t96.5 -39.5t96.5 39.5t36.5 93.5t-36 93.5t-97 39.5q-60 0 -96.5 -39.5t-36.5 -93.5z" />
<glyph unicode="&#x26;" horiz-adv-x="1699" d="M111 408q0 83 26 152t75.5 121.5t104.5 91t127 73.5l-2 2q-100 106 -100 254q0 112 63 203.5t165 141.5t218 50q186 0 311.5 -115.5t125.5 -281.5q0 -115 -66.5 -195t-183.5 -143l174 -187q27 86 27 173h346q6 -263 -107 -451l281 -297h-441l-63 66 q-106 -69 -228.5 -103.5t-240.5 -34.5q-92 0 -180 18.5t-166.5 57t-137.5 94t-93.5 135.5t-34.5 175zM485 420q-3 -82 65.5 -128t174.5 -46q119 0 223 67l-286 303q-83 -43 -129.5 -89.5t-47.5 -106.5zM688 1126q-3 -61 78 -145q67 32 103.5 64t37.5 71q2 43 -30.5 74 t-81.5 31q-42 0 -73 -26.5t-34 -68.5z" />
<glyph unicode="'" horiz-adv-x="348" d="M43 1362v215h262v-215l-41 -227h-176z" />
<glyph unicode="(" horiz-adv-x="858" d="M80 610q0 95 11.5 190t27 170t45 160.5t51.5 140.5t60.5 132t58.5 113.5t59 105.5l305 -156q-243 -432 -243 -854q0 -424 245 -860l-303 -155q-68 110 -115.5 203.5t-98 222.5t-77 277.5t-26.5 309.5z" />
<glyph unicode=")" horiz-adv-x="858" d="M158 -248q245 436 245 860q0 422 -243 854l305 156q39 -69 59 -105.5t58.5 -113.5t60.5 -132t51.5 -140.5t45 -160.5t27 -170t11.5 -190q0 -161 -26.5 -309.5t-77 -277.5t-98 -222.5t-115.5 -203.5z" />
<glyph unicode="*" horiz-adv-x="915" d="M127 1262l43 180l197 -49v202l192 -4l-6 -196l190 45l48 -185l-193 -38l121 -168l-148 -95l-114 170l-107 -168l-147 103l112 162z" />
<glyph unicode="+" horiz-adv-x="1443" d="M178 578v266h395v426h293v-426h400v-266h-400v-426h-293v426h-395z" />
<glyph unicode="," horiz-adv-x="473" d="M61 139q0 70 50 118t122 48q78 0 132.5 -57t54.5 -148q0 -122 -92 -211.5t-226 -95.5l11 105q39 6 69.5 31.5t40.5 66.5q-59 -12 -110.5 30t-51.5 113z" />
<glyph unicode="-" horiz-adv-x="847" d="M61 582v288h725v-288h-725z" />
<glyph unicode="." horiz-adv-x="487" d="M61 162q0 75 55.5 131.5t131.5 56.5t130 -56t54 -132q0 -79 -55 -135t-129 -56q-76 0 -131.5 56.5t-55.5 134.5z" />
<glyph unicode="/" horiz-adv-x="989" d="M78 -270l514 1765h321l-514 -1765h-321z" />
<glyph unicode="0" horiz-adv-x="1566" d="M90 719q0 147 38.5 270.5t104.5 209.5t154.5 145.5t188 87.5t206.5 28q106 -1 206 -29t189 -87.5t155.5 -145t105.5 -209t39 -270.5q0 -148 -39 -272.5t-105 -210.5t-155 -145.5t-189 -87.5t-207 -28t-206.5 28t-188 87.5t-154.5 145.5t-104.5 210.5t-38.5 272.5z M461 723q0 -105 26.5 -188.5t72 -135.5t102.5 -79t120 -27t120 27t102.5 78t72.5 134.5t27 188.5q0 103 -27 185t-72.5 132.5t-102.5 76.5t-120 26t-119.5 -26t-102 -75.5t-72.5 -131.5t-27 -185z" />
<glyph unicode="1" horiz-adv-x="886" d="M70 1231l307 203h332v-1434h-373v1126l-148 -94z" />
<glyph unicode="2" horiz-adv-x="1380" d="M88 0v268l610 469q162 124 162 236q0 75 -57 124.5t-141 49.5q-154 0 -238 -182l-307 131q68 167 224 265.5t341 98.5q143 0 268 -57t203 -165.5t78 -244.5q0 -230 -217 -407l-328 -267h565v-319h-1163z" />
<glyph unicode="3" horiz-adv-x="1300" d="M70 160l131 268q201 -129 387 -129q110 0 176.5 42t66.5 105q0 60 -60.5 99t-152.5 39h-229v301h205q83 0 135.5 35.5t52.5 89.5q0 55 -55 93t-149 38q-158 0 -320 -111l-131 279q261 149 516 149q220 0 363 -102.5t143 -272.5q-1 -110 -66 -191.5t-178 -125.5 q133 -31 218 -124.5t85 -229.5q0 -131 -79.5 -230.5t-209 -149.5t-286.5 -50q-299 0 -563 178z" />
<glyph unicode="4" horiz-adv-x="1406" d="M49 274v271l670 889h428v-838h196v-322h-196v-274h-369v274h-729zM432 592h352v477z" />
<glyph unicode="5" horiz-adv-x="1419" d="M119 170l147 258q186 -138 379 -135q118 2 193.5 56t72.5 147q-1 89 -72.5 143.5t-185.5 52.5q-158 0 -323 -112l-148 92l68 762h932v-318h-609l-26 -227q148 78 291 78q189 0 317.5 -122t128.5 -331q0 -102 -33.5 -190.5t-92.5 -152.5t-137 -109.5t-167.5 -68 t-183.5 -22.5q-144 0 -287 52.5t-264 146.5z" />
<glyph unicode="6" horiz-adv-x="1384" d="M53 694q0 143 41.5 267.5t112.5 214t165.5 153.5t202 95.5t220.5 31.5q236 0 434 -127l-113 -285q-135 99 -287 99q-151 0 -261 -96.5t-134 -272.5q77 98 177 149t214 50q94 0 182.5 -34t157 -93.5t110.5 -147.5t42 -188q0 -148 -79 -270.5t-213 -191t-292 -68.5 q-103 0 -200.5 28.5t-184.5 87.5t-153 142.5t-104 201t-38 254.5zM459 500q40 -99 115 -152t159 -53q88 0 149.5 55t61.5 144q0 87 -59 140.5t-146 53.5q-83 0 -157.5 -51t-122.5 -137z" />
<glyph unicode="7" horiz-adv-x="1249" d="M80 1100v334h1071v-332l-625 -1102h-432l651 1100h-665z" />
<glyph unicode="8" horiz-adv-x="1439" d="M98 387q0 76 30 141.5t78.5 108.5t102.5 70.5t107 37.5q-45 12 -87.5 36t-80.5 61.5t-61.5 93t-24.5 119.5q-1 122 77.5 215t203.5 139t274 47q109 0 208 -25.5t177.5 -73.5t125.5 -124t48 -170q0 -86 -41 -155t-97.5 -106.5t-121.5 -53.5q56 -11 110.5 -39.5t103.5 -71 t79.5 -106t31.5 -136.5q1 -129 -85.5 -226t-226 -145.5t-310.5 -50.5q-171 -1 -311 47t-224.5 144t-85.5 223zM471 440q0 -65 68.5 -108.5t179.5 -40.5q108 2 177.5 45.5t68.5 109.5q0 66 -71 110.5t-177 43.5q-105 -2 -175.5 -47t-70.5 -113zM510 1012q2 -57 59 -94.5 t150 -36.5q90 0 146.5 38.5t54.5 96.5q0 60 -62.5 100.5t-142.5 38.5q-87 0 -146.5 -41.5t-58.5 -101.5z" />
<glyph unicode="9" horiz-adv-x="1413" d="M84 924q-1 228 170.5 380t421.5 152q131 0 248 -46.5t209 -134t146 -226t54 -310.5q0 -177 -61 -323t-163 -240t-232.5 -145t-272.5 -51q-232 0 -434 126l115 279q139 -92 280 -92q140 0 241.5 85.5t135.5 233.5q-70 -76 -168 -117.5t-207 -41.5q-130 0 -238.5 55 t-176.5 164t-68 252zM455 938q1 -86 60.5 -138t148.5 -50q80 0 149 42t117 113q-30 105 -94 168.5t-162 63.5q-94 0 -156.5 -56t-62.5 -143z" />
<glyph unicode=":" horiz-adv-x="468" d="M68 221q0 69 50.5 120.5t119.5 51.5t118.5 -51.5t49.5 -120.5q0 -71 -50 -121.5t-118 -50.5q-69 0 -119.5 51t-50.5 121zM68 909q0 69 50.5 120.5t119.5 51.5t118.5 -51.5t49.5 -120.5q0 -71 -50 -121.5t-118 -50.5q-69 0 -119.5 51t-50.5 121z" />
<glyph unicode=";" horiz-adv-x="557" d="M70 885q0 73 52.5 126.5t125.5 53.5t125.5 -53.5t52.5 -126.5q0 -76 -53 -130.5t-125 -54.5q-74 0 -126 54.5t-52 130.5zM102 139q0 69 49.5 116.5t120.5 47.5q78 0 132.5 -56.5t54.5 -148.5q0 -121 -91.5 -210t-224.5 -95l9 105q40 6 70 31.5t40 66.5q-60 -13 -110 29 t-50 114z" />
<glyph unicode="&#x3c;" horiz-adv-x="1380" d="M94 584v245l1036 369l76 -291l-692 -196l692 -199l-76 -293z" />
<glyph unicode="=" horiz-adv-x="1368" d="M150 328v266h1069v-266h-1069zM150 786v267h1069v-267h-1069z" />
<glyph unicode="&#x3e;" horiz-adv-x="1380" d="M125 514l692 197l-692 198l76 289l1036 -369v-245l-1036 -365z" />
<glyph unicode="?" horiz-adv-x="1306" d="M88 1124q76 161 206.5 248t283.5 98q97 8 190.5 -13t171 -68t127.5 -128.5t55 -185.5q3 -73 -16.5 -130t-53 -94.5t-74.5 -69t-82.5 -62.5t-76.5 -65.5t-57 -87.5t-23 -120l-366 -2q-4 104 14.5 188.5t51.5 138t74 95.5t82.5 68t76 47t56.5 42t22 44q0 44 -39.5 68.5 t-100.5 19.5q-138 -11 -213 -184zM377 166q0 71 51.5 123.5t122.5 52.5t122.5 -52.5t51.5 -123.5q0 -74 -51.5 -126t-122.5 -52q-72 0 -123 52t-51 126z" />
<glyph unicode="@" horiz-adv-x="2238" d="M84 520q19 220 116 407.5t246 316.5t344.5 201.5t409.5 72.5q166 0 317.5 -42t276.5 -127t212.5 -203.5t126.5 -280.5t17 -349q-33 -288 -180 -450t-344 -160q-146 1 -243.5 88.5t-108.5 214.5q-58 -88 -142.5 -131t-170.5 -43q-55 0 -109.5 17t-106 55t-88.5 92 t-54.5 136t-6.5 179q13 112 57.5 199t107 138t132 77t141.5 26q175 0 301 -141l23 111h268l-65 -578q-6 -82 17 -117.5t60 -35.5q69 0 128.5 91t76.5 242q16 154 -27.5 286t-132 222.5t-214.5 141.5t-273 51q-148 0 -284.5 -52t-244 -144.5t-178 -229.5t-86.5 -297 q-15 -161 28.5 -299.5t131 -232.5t212.5 -147.5t269 -53.5q154 0 302 61l81 -283q-193 -71 -387 -71q-138 0 -267.5 34t-239.5 97t-199.5 156.5t-149 207t-86.5 254t-14 293.5zM889 520q-10 -104 45 -170.5t149 -66.5q39 0 76.5 14t60 29.5t56.5 42.5l33 282q-90 94 -195 94 q-87 -2 -150 -63.5t-75 -161.5z" />
<glyph unicode="A" horiz-adv-x="1609" d="M-2 0l618 1434h373l623 -1434h-387l-105 264h-631l-102 -264h-389zM612 584h383l-192 489z" />
<glyph unicode="B" horiz-adv-x="1435" d="M156 0v1434q211 8 536 8q134 -1 238 -23t167.5 -57.5t104 -85t55.5 -99t15 -104.5q0 -116 -62.5 -195t-169.5 -106q142 -25 236 -121t94 -250q0 -199 -174 -306t-506 -107q-296 0 -534 12zM528 297q79 -3 138 -3q36 0 65 1q126 5 194 45t68 115q0 147 -291 159 q-25 1 -50 1q-60 0 -124 -5v-313zM528 883q53 -4 101.5 -3.5t93.5 3.5q190 15 190 124v7q-4 59 -57.5 88.5t-126.5 32.5q-33 3 -74 3q-55 0 -127 -5v-250z" />
<glyph unicode="C" horiz-adv-x="1466" d="M80 711q0 222 109 395t292 265.5t406 94.5h9q238 0 466 -104l-117 -297q-151 84 -314 84h-11q-90 -2 -172 -30t-147.5 -80.5t-104.5 -136.5t-39 -189t38.5 -188.5t104 -134t147.5 -77t173 -26.5q173 0 323 92l127 -293q-228 -119 -465 -119h-8q-123 -1 -239 29 q-120 30 -225 93t-184 150.5t-124 209t-45 262.5z" />
<glyph unicode="D" horiz-adv-x="1581" d="M156 0v1434q163 6 424 6q162 -2 299.5 -28t253.5 -81t197 -137t126 -200t45 -265q0 -356 -255.5 -546.5t-737.5 -190.5q-188 0 -352 8zM526 311q24 -1 48 -1q40 0 79 3q99 6 182.5 33t150.5 75.5t104.5 126.5t37.5 177q0 85 -28.5 152.5t-74 110t-109 72t-128 42.5 t-135.5 16q-37 3 -81 3q-22 0 -46 -1v-809z" />
<glyph unicode="E" horiz-adv-x="1359" d="M156 0v1434h1077v-318h-705v-252h533v-289h-533v-258h750v-317h-1122z" />
<glyph unicode="F" horiz-adv-x="1290" d="M156 0v1434h1075v-322h-707v-334h518v-295h-518v-483h-368z" />
<glyph unicode="G" horiz-adv-x="1636" d="M80 707q1 158 62 298.5t168 242.5t261.5 161.5t333.5 60.5h9q248 0 479 -106l-111 -305q-157 98 -333 98h-17q-131 -3 -239.5 -59t-173 -157.5t-64.5 -229.5q0 -129 65 -229t174 -153t240 -53q144 0 276 68v178h-321v295h657v-670q-285 -190 -628 -190q-238 0 -428.5 94 t-300 266t-109.5 390z" />
<glyph unicode="H" horiz-adv-x="1667" d="M156 0v1434h372v-572h611v572h372v-1434h-372v545h-611v-545h-372z" />
<glyph unicode="I" horiz-adv-x="675" d="M156 0v1434h364v-1434h-364z" />
<glyph unicode="J" horiz-adv-x="923" d="M20 276q196 1 300 120t104 339v699h367v-689q0 -217 -49 -370t-148 -245.5t-238.5 -134.5t-330.5 -42z" />
<glyph unicode="K" horiz-adv-x="1480" d="M156 0v1434h370v-652l504 652h422l-508 -629l561 -805h-446l-344 524l-189 -235v-289h-370z" />
<glyph unicode="L" horiz-adv-x="1196" d="M156 0v1434h372v-1117h662v-317h-1034z" />
<glyph unicode="M" horiz-adv-x="2039" d="M156 0v1434h350l506 -676l516 676h356v-1434h-377v870l-495 -647l-486 649v-872h-370z" />
<glyph unicode="N" horiz-adv-x="1695" d="M156 0v1434h366l649 -873v873h369v-1434h-356l-660 868v-868h-368z" />
<glyph unicode="O" horiz-adv-x="1740" d="M80 705q0 226 104.5 399.5t284 265.5t403.5 92q222 0 400.5 -91t283.5 -264t105 -398q0 -220 -98 -393t-277.5 -270t-411.5 -97q-171 0 -317.5 54.5t-251.5 152.5t-165 239.5t-60 309.5zM457 707q0 -189 113 -313t304 -124q190 0 300 124.5t110 312.5q0 190 -112 313 t-300 123q-187 0 -301 -122.5t-114 -313.5z" />
<glyph unicode="P" horiz-adv-x="1421" d="M156 0v1434q240 12 452 12q762 0 762 -531q0 -114 -35 -206.5t-92 -153.5t-135.5 -105t-159 -65.5t-168.5 -28.5q-104 -8 -250 -8v-348h-374zM530 666q140 0 197 4q125 9 197.5 67t72.5 160q0 104 -73.5 167t-198.5 71q-57 2 -195 2v-471z" />
<glyph unicode="Q" horiz-adv-x="1767" d="M80 705q0 225 104.5 398t284 265t403.5 92q222 0 400.5 -90.5t283.5 -263.5t105 -399q0 -289 -166 -490t-446 -252q40 -25 85.5 -62.5t76 -65.5t69 -52t74.5 -31q14 -2 28 -2q105 0 183 131l194 -155q-67 -140 -179 -213q-83 -54 -189 -54q-38 0 -78 7 q-63 11 -121.5 40.5t-102.5 64.5t-85 69.5t-86 62.5t-89 37q-17 3 -34 3q-44 0 -84 -23q-55 -32 -95 -103l-194 172q66 129 182 197q-239 70 -381.5 260.5t-142.5 456.5zM457 705q0 -189 113 -313t304 -124q190 0 300 125t110 314q0 190 -112 312t-300 122 q-187 0 -301 -122.5t-114 -313.5z" />
<glyph unicode="R" horiz-adv-x="1466" d="M156 0v1434q356 8 524 8q309 -1 488.5 -147t179.5 -386q0 -262 -218 -417l246 -492h-422l-168 367q-57 -5 -65 -5q-62 -2 -110.5 -2t-82.5 2v-362h-372zM526 678q37 -1 70 -1q66 0 117 5q130 12 196 71t66 152q0 99 -79 155t-196 64q-51 3 -106 3q-33 0 -68 -1v-448z" />
<glyph unicode="S" horiz-adv-x="1380" d="M104 121l103 301q232 -129 448 -129h7q119 1 187.5 39t70.5 96q1 31 -18.5 52.5t-60.5 35t-82 22t-107 20.5t-111 24q-407 101 -410 422v6q0 92 32 166q33 77 89.5 128.5t133 86t159 50t170.5 15.5q240 0 465 -104l-72 -301q-192 88 -367 88q-104 0 -171 -31 q-64 -30 -64 -85v-5q1 -19 10 -34.5t28.5 -27t40.5 -19.5t55 -16.5t63.5 -14.5t74 -15t78.5 -17q76 -19 134.5 -40t118 -55.5t98 -77.5t62.5 -107q25 -67 25 -148q0 -116 -48 -206q-49 -92 -134 -149.5t-193.5 -87t-232.5 -30.5h-8q-294 0 -574 148z" />
<glyph unicode="T" horiz-adv-x="1310" d="M10 1116v318h1290v-318h-462v-1116h-367v1116h-461z" />
<glyph unicode="U" horiz-adv-x="1640" d="M133 621v813h373v-820q0 -144 82.5 -233.5t228.5 -89.5q147 0 232.5 90.5t85.5 234.5v818h374v-803q0 -129 -35.5 -239.5t-99 -190t-149.5 -135.5t-187.5 -83.5t-212.5 -27.5q-106 0 -204.5 24.5t-187.5 77.5t-155.5 129.5t-105.5 188t-39 246.5z" />
<glyph unicode="V" horiz-adv-x="1572" d="M-59 1434h391l461 -1047l448 1047h391l-645 -1434h-387z" />
<glyph unicode="W" horiz-adv-x="2308" d="M12 1434h365l303 -957l326 957h303l340 -959l284 959h367l-465 -1434h-344l-330 922l-313 -922h-346z" />
<glyph unicode="X" horiz-adv-x="1521" d="M2 0l508 733l-483 701h444l291 -437l301 437h440l-485 -703l506 -731h-445l-317 469l-318 -469h-442z" />
<glyph unicode="Y" horiz-adv-x="1597" d="M14 1434h432l355 -547l352 547h428l-582 -883v-551h-407l-2 553z" />
<glyph unicode="Z" horiz-adv-x="1439" d="M78 0v287l815 829h-772v318h1235v-291l-793 -824h797v-319h-1282z" />
<glyph unicode="[" horiz-adv-x="817" d="M133 -354v1937h535v-205h-179v-1530h179v-202h-535z" />
<glyph unicode="\" horiz-adv-x="944" d="M59 1446l277 76l514 -1766l-277 -73z" />
<glyph unicode="]" horiz-adv-x="817" d="M129 -152h178v1530h-178v205h535v-1937h-535v202z" />
<glyph unicode="^" horiz-adv-x="1304" d="M49 707l506 727h193l507 -727l-317 2l-285 448l-286 -448z" />
<glyph unicode="_" horiz-adv-x="745" d="M10 0h725v-248h-725v248z" />
<glyph unicode="`" horiz-adv-x="1302" d="M573 1950l316 47l155 -330l-231 -98z" />
<glyph unicode="a" d="M74 565q0 127 42.5 232.5t114 173.5t161.5 105.5t188 37.5q108 0 193 -42t140 -107l11 135h336v-1100h-326l-10 123q-131 -139 -324 -139q-101 0 -195.5 41t-168 114.5t-118 184.5t-44.5 241zM414 563q0 -129 76.5 -209t193.5 -80q130 0 231 105l-2 334q-97 125 -239 125 q-107 0 -183.5 -74.5t-76.5 -200.5z" />
<glyph unicode="b" horiz-adv-x="1429" d="M150 0v1481h348v-516q166 149 364 149q95 0 182.5 -35t158 -101t113 -173t42.5 -240q0 -109 -29 -204t-78.5 -163t-115.5 -117t-141 -73t-154 -24q-189 0 -353 139l-10 -123h-327zM496 391q44 -47 106.5 -77.5t132.5 -30.5h6q111 0 188 76q79 78 79 200q0 119 -75 192.5 t-183 73.5q-137 0 -252 -123z" />
<glyph unicode="c" horiz-adv-x="1230" d="M74 549v6q0 105 34 197q34 94 93.5 163t139.5 118.5t173 74t191 25.5q260 0 469 -160l-160 -260q-49 58 -122 92.5t-159 34.5q-136 0 -222.5 -83.5t-88.5 -205.5q-1 -125 87 -207t220 -82q166 0 279 125l163 -248q-209 -168 -471 -168q-122 0 -234 38.5t-199.5 110 t-140 183t-52.5 246.5z" />
<glyph unicode="d" horiz-adv-x="1429" d="M74 565q0 133 42 240t112 173t157.5 101t183.5 35q199 0 365 -149v516h348v-1481h-328l-10 123q-164 -139 -352 -139q-79 0 -154 24t-141 73t-115.5 117t-78.5 163t-29 204zM422 559q0 -122 78 -200q77 -76 190 -76h6q70 0 132 30.5t106 77.5v311q-49 52 -115 87.5 t-139 35.5q-107 0 -182.5 -73.5t-75.5 -192.5z" />
<glyph unicode="e" horiz-adv-x="1347" d="M74 561q0 131 49.5 240t134.5 181t199 110q111 38 236 38h7q108 -1 202 -29.5t161.5 -77.5t119 -115t75.5 -140q23 -76 28 -156q1 -13 1 -26q0 -67 -21 -133h-826q31 -95 116 -144q82 -47 191 -47h9q182 2 350 133l151 -239q-82 -69 -219 -121.5t-299 -52.5 q-102 0 -197.5 22.5t-180.5 70t-149 115t-101 163t-37 208.5zM442 690h502q-3 72 -67 122t-168 50q-97 0 -167.5 -45t-99.5 -127z" />
<glyph unicode="f" horiz-adv-x="903" d="M68 807v293h155v45q0 111 41.5 198t111 138.5t153.5 77.5t176 26q182 0 358 -94l-96 -252q-105 68 -203 68h-8q-81 -2 -133 -44t-52 -126v-37h244v-293h-244v-807h-348v807h-155z" />
<glyph unicode="g" horiz-adv-x="1386" d="M74 565q0 112 29.5 205t79 155.5t115.5 106t136.5 63t143.5 19.5q190 0 350 -147l14 133h332v-1043q0 -126 -35 -226.5t-93 -166t-137 -108.5t-163 -61.5t-176 -18.5q-147 0 -276.5 41.5t-221.5 95.5l115 258q159 -104 334 -104q137 0 223.5 69.5t87.5 198.5v102 q-70 -67 -146.5 -106t-185.5 -39q-99 0 -191 36t-167.5 104.5t-121.5 180.5t-46 252zM422 563q0 -120 77 -195t193 -75q67 0 128.5 26.5t105.5 67.5v338q-113 102 -244 102q-108 0 -184 -71.5t-76 -192.5z" />
<glyph unicode="h" horiz-adv-x="1435" d="M145 0v1485h351v-561q173 194 387 194q85 0 163 -29t143.5 -85t104.5 -151.5t39 -217.5v-635h-346v594q0 103 -60 163t-149 60q-85 0 -158.5 -52.5t-123.5 -123.5l-2 -641h-349z" />
<glyph unicode="i" horiz-adv-x="624" d="M125 1405q0 77 53.5 128.5t132.5 51.5t134 -52t55 -130q0 -77 -54 -126.5t-133 -49.5q-80 0 -134 50.5t-54 127.5zM137 0v1100h348v-1100h-348z" />
<glyph unicode="j" horiz-adv-x="606" d="M-354 -406l102 261q96 -62 205 -62h10q72 2 123 44t51 138v1125h342v-1131q0 -114 -40 -205t-108 -147.5t-154.5 -86.5t-182.5 -30q-172 0 -348 94zM127 1403q0 68 53 115t129 47q74 0 127 -47t53 -115t-53 -113t-127 -45q-76 0 -129 45.5t-53 112.5z" />
<glyph unicode="k" horiz-adv-x="1325" d="M145 0v1479h347v-828l395 449h426l-439 -471l474 -629h-426l-279 381l-151 -162v-219h-347z" />
<glyph unicode="l" horiz-adv-x="641" d="M145 0v1479h351v-1479h-351z" />
<glyph unicode="m" horiz-adv-x="2009" d="M115 0v1100h329l2 -162q163 192 361 192q114 0 205 -57t129 -155q57 85 153 148.5t217 63.5q104 0 192.5 -47.5t146 -147t57.5 -233.5v-702h-330v643q0 87 -44.5 139t-117.5 52t-133 -48.5t-100 -117.5l-2 -668h-328v649q0 86 -45.5 135.5t-118.5 49.5q-65 0 -126 -47 t-105 -113v-674h-342z" />
<glyph unicode="n" d="M115 0v1100h329l13 -168q182 186 381 186q85 0 161.5 -29t138 -86t98 -151.5t36.5 -214.5v-637h-350l2 602q0 105 -53.5 167t-143.5 62q-80 0 -151 -48t-119 -119v-664h-342z" />
<glyph unicode="o" horiz-adv-x="1392" d="M74 555q0 248 177.5 410.5t446.5 162.5q124 0 236.5 -40t198 -112.5t136 -182t50.5 -240.5q0 -137 -52.5 -248t-140.5 -180.5t-198 -106t-230 -36.5q-127 0 -240 39.5t-198.5 111.5t-135.5 181.5t-50 240.5zM422 553q1 -129 82 -204t194 -75q110 0 191.5 75t81.5 204 q0 133 -81 208t-192 75q-114 0 -195 -76.5t-81 -206.5z" />
<glyph unicode="p" horiz-adv-x="1384" d="M115 -379v1479h329l19 -131q165 145 358 145q74 0 143.5 -20t133 -63.5t111.5 -106.5t76 -155.5t28 -203.5q0 -119 -31 -217.5t-83 -164.5t-120 -112t-140.5 -66.5t-147.5 -20.5q-103 0 -183 35.5t-155 95.5v-494h-338zM461 375q109 -94 239 -94q113 0 189 74t76 204 q0 129 -74.5 196.5t-179.5 67.5q-73 0 -139.5 -32t-108.5 -76z" />
<glyph unicode="q" horiz-adv-x="1386" d="M74 555q0 119 30.5 216t80.5 160.5t117 106t138 60.5q67 16 138 16h8q200 -2 338 -149l18 135h330v-1479h-338v502q-158 -139 -353 -139h-8q-98 1 -185.5 36t-158.5 102t-113 179t-42 254zM422 557q0 -127 76 -201.5t188 -74.5q127 0 240 94l-2 340q-104 108 -238 108 q-108 0 -186 -67.5t-78 -198.5z" />
<glyph unicode="r" horiz-adv-x="927" d="M115 0v1100h315l14 -176q54 95 136.5 144.5t175.5 49.5q81 0 170 -47l-78 -285q-59 39 -123 39q-160 0 -262 -192v-633h-348z" />
<glyph unicode="s" horiz-adv-x="1191" d="M70 111l114 254q204 -119 411 -119h7q80 2 130 24q47 20 46 54q0 24 -16 38q-15 14 -47 23t-63.5 14.5t-84.5 14t-92 16.5q-358 79 -358 340q0 119 72.5 203.5t184.5 122.5q104 35 229 34h20q214 -2 407 -92l-80 -260q-161 78 -315 78q-77 0 -123.5 -22t-46.5 -60 q0 -19 13 -31.5t42 -19.5t58.5 -11.5t78.5 -11t86 -14.5q381 -71 381 -354q0 -97 -44 -170t-119.5 -114.5t-166.5 -61.5q-83 -18 -177 -17h-19q-279 5 -528 142z" />
<glyph unicode="t" horiz-adv-x="1052" d="M47 807v293h201v334h344v-334h311v-293h-311v-348q1 -92 51 -137.5t123 -47.5h6q83 0 174 54l96 -256q-174 -92 -342 -92q-202 0 -327 124.5t-125 319.5v383h-201z" />
<glyph unicode="u" horiz-adv-x="1335" d="M104 416v684h349v-660q0 -83 49 -130.5t125 -47.5q75 0 139.5 44t107.5 100v694h349v-1100h-322l-16 137q-172 -172 -375 -172q-170 0 -288 122t-118 329z" />
<glyph unicode="v" horiz-adv-x="1292" d="M-8 1100h362l297 -699l291 699h358l-499 -1100h-299z" />
<glyph unicode="w" horiz-adv-x="1855" d="M10 1100h350l191 -694l227 694h299l228 -707l190 707h350l-348 -1100h-369l-206 625l-199 -625h-365z" />
<glyph unicode="x" horiz-adv-x="1327" d="M-27 0l469 582l-424 518h435l213 -277l221 277h407l-415 -522l475 -578h-434l-271 330l-264 -330h-412z" />
<glyph unicode="y" horiz-adv-x="1368" d="M-2 1100h383l321 -727l326 727h381l-809 -1723h-383l299 627z" />
<glyph unicode="z" horiz-adv-x="1157" d="M90 0v205l522 606h-491v289h942v-213l-508 -596h528v-291h-993z" />
<glyph unicode="{" horiz-adv-x="757" d="M39 721q30 3 53 10.5t46 25t35.5 52t12.5 84.5v446q0 126 60.5 184t181.5 58h242v-211q-65 0 -92 -26.5t-27 -94.5v-377q0 -198 -176 -237v-14q176 -43 176 -240v-354q0 -70 27 -96.5t92 -24.5v-215h-242q-121 0 -181.5 59t-60.5 184v426q0 50 -12.5 84.5t-35 52 t-45.5 25t-52 10.5z" />
<glyph unicode="|" horiz-adv-x="845" d="M262 -193v1737h318v-1737h-318z" />
<glyph unicode="}" horiz-adv-x="755" d="M66 -94q66 -2 93 25t27 96v354q0 198 176 240v14q-176 38 -176 237v377q0 68 -27 94.5t-93 26.5v211h243q121 0 180.5 -57.5t59.5 -184.5v-446q0 -50 12.5 -84.5t35.5 -52t46 -25t53 -10.5v-189q-30 -3 -53 -10.5t-46 -25t-35.5 -52t-12.5 -84.5v-426q0 -126 -60 -184.5 t-180 -58.5h-243v215z" />
<glyph unicode="~" horiz-adv-x="1339" d="M66 717q42 127 131 216.5t211 108.5q67 10 127.5 -6.5t106 -47.5t87 -62t88 -51t92.5 -15q59 6 106 51t70 107l183 -94q-100 -287 -324 -324q-69 -11 -132 5.5t-111 47.5t-92 63t-93.5 52.5t-97.5 15.5q-120 -12 -182 -151z" />
<glyph unicode="&#xa1;" horiz-adv-x="722" d="M160 -152l37 957h325l45 -957h-407zM170 1116q0 78 55.5 134.5t132.5 56.5q76 0 132.5 -56t56.5 -135q0 -77 -56.5 -133.5t-132.5 -56.5q-77 0 -132.5 56.5t-55.5 133.5z" />
<glyph unicode="&#xa2;" horiz-adv-x="1118" d="M72 711q0 115 40.5 209.5t110.5 157.5t159.5 100.5t190.5 46.5l31 168l234 -39l-27 -150q140 -36 252 -110l-127 -236q-128 92 -272 92q-122 0 -201.5 -65.5t-79.5 -171.5q0 -111 82 -172.5t197 -61.5q145 0 268 101l127 -240q-189 -130 -402 -139l-28 -178l-234 38 l29 172q-157 50 -253.5 173t-96.5 305z" />
<glyph unicode="&#xa3;" horiz-adv-x="1490" d="M10 94l121 285q102 -63 195 -60q73 2 121.5 37t48.5 105v145h-179v297h177v154q0 112 39.5 199.5t106.5 139t149 77.5t174 26q180 0 354 -96l-115 -275q-98 61 -188 58q-69 -2 -108.5 -45.5t-39.5 -132.5v-105h234v-297h-234v-143q0 -106 -45 -146h588v-317h-1047 q-176 0 -352 94z" />
<glyph unicode="&#xa4;" horiz-adv-x="1069" d="M61 1042l156 156l119 -121q80 39 174 39q100 0 180 -39l119 121l158 -156l-115 -116q43 -82 43 -185q0 -98 -41 -178l109 -108l-156 -158l-115 113q-85 -37 -182 -37q-93 0 -174 35l-115 -111l-155 160l104 100q-45 82 -45 184q0 103 49 187zM326 743q0 -80 54.5 -132 t129.5 -52q77 0 131.5 52t54.5 132q0 81 -53.5 133t-132.5 52q-74 0 -129 -52.5t-55 -132.5z" />
<glyph unicode="&#xa5;" horiz-adv-x="1599" d="M14 1434h432l355 -547l352 547h428l-491 -746h217v-201h-308v-65h308v-199h-308v-223h-407l-2 223h-332v199h332v65h-332v201h244z" />
<glyph unicode="&#xa6;" horiz-adv-x="839" d="M262 -193v777h311v-777h-311zM262 752v792h311v-792h-311z" />
<glyph unicode="&#xa7;" horiz-adv-x="1200" d="M115 6l82 238q202 -106 409 -103q86 0 136 23.5t49 66.5q-1 24 -16 40.5t-46 27t-66 18t-86 15.5q-17 3 -26 4q-429 43 -432 313q-3 138 117 230q-119 80 -119 235q-1 114 69.5 195.5t182 119t247.5 35.5q189 0 416 -84l-63 -241q-192 78 -344 78q-85 -1 -130.5 -27.5 t-43.5 -69.5q0 -22 12 -36.5t39 -23.5t55.5 -14t76.5 -12q29 -4 44 -6q438 -51 440 -328q0 -143 -114 -223q113 -83 116 -241q0 -91 -42 -160t-114.5 -109.5t-160.5 -60t-189 -19.5q-266 0 -499 119zM451 674q0 -40 39 -56.5t124 -29.5q79 2 126.5 25.5t47.5 68.5 q-1 21 -14 37t-39.5 26.5t-55.5 17t-73 13.5q-73 -3 -114 -32t-41 -70z" />
<glyph unicode="&#xa8;" horiz-adv-x="1333" d="M614 1737q0 56 39 93.5t95 37.5q55 0 94 -37.5t39 -93.5t-39.5 -94.5t-93.5 -38.5t-94 38.5t-40 94.5zM977 1737q0 56 39.5 93.5t95.5 37.5q55 0 93 -37.5t38 -93.5t-39.5 -94.5t-91.5 -38.5q-55 0 -95 38.5t-40 94.5z" />
<glyph unicode="&#xa9;" horiz-adv-x="1564" d="M25 721q0 151 60 288.5t161.5 236.5t242 157.5t295.5 58.5q123 0 239 -37.5t209 -106t163 -159.5t108.5 -204t38.5 -234q0 -152 -60 -290.5t-161.5 -239.5t-242 -160.5t-294.5 -59.5q-206 0 -381 101t-276.5 273.5t-101.5 375.5zM240 721q0 -148 73 -274t198.5 -199.5 t272.5 -73.5q146 0 271.5 74t199.5 200t74 273q0 109 -43.5 209.5t-117 173.5t-173.5 116.5t-209 43.5q-149 0 -275 -73.5t-198.5 -198.5t-72.5 -271zM365 717q0 97 35 176t94.5 128.5t135 76t158.5 26.5q169 3 320 -108l-98 -150q-91 70 -207 70q-104 0 -167 -61.5 t-63 -155.5q0 -98 67.5 -153.5t162.5 -55.5q113 0 205 76l98 -158q-140 -113 -311 -113q-117 0 -212.5 45t-156 138t-61.5 219z" />
<glyph unicode="&#xaa;" horiz-adv-x="940" d="M53 956q0 66 30 117t79.5 78.5t104 41t112.5 13.5q93 -2 196 -51q3 72 -37.5 112t-123.5 40q-96 0 -211 -56l-66 142q153 75 312 75q169 0 270.5 -91t101.5 -244v-416h-229l-2 71q-120 -86 -240 -86q-127 0 -212 70.5t-85 183.5zM94 375v241h744v-241h-744zM287 973 q0 -44 35.5 -72.5t87.5 -28.5q82 0 161 58v94q-72 43 -147 43q-60 0 -98.5 -25.5t-38.5 -68.5z" />
<glyph unicode="&#xab;" horiz-adv-x="1404" d="M37 553l467 547h323l-467 -547l474 -553h-324zM594 553l467 547h323l-466 -547l473 -553h-324z" />
<glyph unicode="&#xac;" horiz-adv-x="1382" d="M117 694v180h1147v-675h-195v495h-952z" />
<glyph unicode="&#xad;" horiz-adv-x="847" d="M61 582v288h725v-288h-725z" />
<glyph unicode="&#xae;" horiz-adv-x="1536" d="M25 721q0 151 59 288.5t158.5 236.5t237.5 157.5t290 58.5q151 0 288.5 -58.5t237 -157.5t158.5 -236.5t59 -288.5q0 -152 -59 -290.5t-158.5 -239.5t-237 -160.5t-288.5 -59.5q-202 0 -374 101t-271.5 273.5t-99.5 375.5zM225 721q0 -148 73.5 -274t199 -199.5 t272.5 -73.5q146 0 271.5 73.5t199.5 200t74 275.5q0 146 -73.5 270.5t-199 197.5t-272.5 73q-148 0 -273.5 -73t-198.5 -198t-73 -272zM473 346v729q130 29 277 29q105 0 186 -30t131 -96t51 -161q0 -73 -31.5 -131.5t-85.5 -87.5l111 -252h-213l-68 174q-25 -6 -151 -6 v-168h-207zM672 678q39 2 96 2q76 -3 119 31.5t43 95.5q0 64 -44.5 99.5t-115.5 35.5q-61 0 -98 -4v-260z" />
<glyph unicode="&#xaf;" horiz-adv-x="1343" d="M602 1591v226h715v-226h-715z" />
<glyph unicode="&#xb0;" horiz-adv-x="806" d="M76 1329q0 138 95 230t237 92q151 0 240 -95t89 -227q0 -140 -88 -229.5t-241 -89.5q-140 0 -236 87t-96 232zM274 1325q0 -55 38 -96t102 -41q63 0 99 41t36 96q0 56 -36 96.5t-99 40.5t-101.5 -41t-38.5 -96z" />
<glyph unicode="&#xb1;" horiz-adv-x="1247" d="M178 139v244h891v-244h-891zM184 831v242h305v309h269v-309h307v-242h-307v-307h-269v307h-305z" />
<glyph unicode="&#xb2;" horiz-adv-x="862" d="M88 653v129l332 285q74 62 74 107q0 32 -26.5 53.5t-64.5 21.5t-70.5 -29t-47.5 -75l-187 55q38 114 129.5 175t196.5 61q118 0 205.5 -71.5t87.5 -180.5q-3 -114 -101 -193l-176 -151h291v-187h-643z" />
<glyph unicode="&#xb3;" horiz-adv-x="794" d="M70 764l77 151q101 -71 213 -71q62 0 98 21.5t36 58.5q0 34 -30 54.5t-81 20.5h-129v148h123q43 0 68.5 20t25.5 50q0 29 -28.5 49t-80.5 20q-94 0 -182 -59l-74 147q133 82 273 82q76 0 142 -25.5t108.5 -76.5t42.5 -117q0 -98 -97 -158q54 -22 88.5 -70.5t34.5 -105.5 q0 -74 -47 -129t-119 -81.5t-155 -26.5q-170 0 -307 98z" />
<glyph unicode="&#xb4;" horiz-adv-x="1339" d="M756 1667l157 330l316 -47l-240 -381z" />
<glyph unicode="&#xb5;" horiz-adv-x="1298" d="M104 416v684h349v-660q0 -83 49 -130.5t125 -47.5q75 0 139.5 44t107.5 100v694l347 -2v-1098h-320l-18 137q-24 -26 -55.5 -51t-79 -54.5t-110.5 -48t-128 -18.5q-50 0 -100 12v-387h-304v775q-2 16 -2 51z" />
<glyph unicode="&#xb6;" horiz-adv-x="1857" d="M49 1022q3 528 727 528h156h770v-1740h-293v1470h-147v-1470h-363v649q-133 0 -242 6q-96 6 -182.5 27.5t-165.5 65.5t-136 106.5t-91 154t-33 203.5z" />
<glyph unicode="&#xb7;" horiz-adv-x="487" d="M61 840q0 75 55.5 131.5t131.5 56.5t130 -56t54 -132q0 -79 -55 -134t-129 -55q-77 0 -132 55.5t-55 133.5z" />
<glyph unicode="&#xb8;" horiz-adv-x="1155" d="M354 -266l158 266h199l-140 -346z" />
<glyph unicode="&#xb9;" horiz-adv-x="636" d="M70 1313l180 119h190v-760h-213v532l-65 -47z" />
<glyph unicode="&#xba;" horiz-adv-x="997" d="M74 1083q0 170 119.5 282t306.5 112q113 0 209 -46.5t156.5 -138t60.5 -209.5q0 -98 -36 -175t-97 -123t-135.5 -69.5t-157.5 -23.5q-189 0 -307.5 101.5t-118.5 289.5zM96 375v241h805v-241h-805zM303 1083q0 -87 58.5 -140.5t140.5 -53.5q81 0 137.5 53t56.5 141 q-1 91 -57.5 145t-136.5 54q-82 0 -140.5 -56t-58.5 -143z" />
<glyph unicode="&#xbb;" horiz-adv-x="1462" d="M29 0l475 553l-467 547h321l469 -547l-475 -553h-323zM586 0l475 553l-467 547h321l469 -547l-475 -553h-323z" />
<glyph unicode="&#xbc;" horiz-adv-x="1882" d="M156 1313l182 119h188v-760h-213v532l-63 -47zM260 0l926 1434h295l-926 -1434h-295zM1024 141v144l360 485h242v-467h100v-162h-100v-141h-209v141h-393zM1235 301h186v238z" />
<glyph unicode="&#xbd;" horiz-adv-x="1947" d="M156 1313l182 119h188v-760h-213v532l-63 -47zM268 0l926 1434h295l-926 -1434h-295zM1149 2v129l332 285q73 62 73 106q0 32 -26 54t-64 22t-70.5 -29t-47.5 -75l-187 55q38 114 129.5 174.5t196.5 60.5q118 0 205.5 -71.5t87.5 -180.5q-3 -113 -101 -192l-176 -152h291 v-186h-643z" />
<glyph unicode="&#xbe;" horiz-adv-x="2058" d="M156 764l77 151q101 -71 213 -71q63 0 98.5 21.5t35.5 58.5q0 34 -29.5 54.5t-81.5 20.5h-127v148h123q42 0 68 20t26 50q0 29 -29 49t-81 20q-92 0 -183 -59l-73 147q133 82 274 82q118 0 204.5 -60t86.5 -159t-94 -158q54 -22 88 -70.5t34 -105.5q0 -74 -47.5 -129 t-120 -81.5t-155.5 -26.5q-166 0 -307 98zM428 0l924 1434h297l-928 -1434h-293zM1167 141v144l361 485h241v-467h101v-162h-101v-141h-208v141h-394zM1378 301h187v238z" />
<glyph unicode="&#xbf;" horiz-adv-x="1361" d="M193 242q-3 73 16.5 130t52.5 94.5t74 69t82.5 62t76.5 65t57 87.5t23 120l367 2q4 -104 -14.5 -188.5t-51.5 -138t-74 -95t-82.5 -67.5t-76 -47t-56.5 -42t-22 -44q0 -44 39.5 -68.5t100.5 -19.5q138 11 213 184l309 -153q-76 -161 -206.5 -248.5t-283.5 -100.5 q-97 -8 -190.5 13.5t-171 68.5t-127.5 129t-55 187zM588 1151q0 74 52 126t122 52q72 0 124 -52.5t52 -125.5q0 -72 -52 -125t-124 -53t-123 53t-51 125z" />
<glyph unicode="&#xc0;" horiz-adv-x="1609" d="M-2 0l618 1434h373l623 -1434h-387l-105 264h-631l-102 -264h-389zM594 1950l315 47l158 -330l-233 -98zM612 584h383l-192 489z" />
<glyph unicode="&#xc1;" horiz-adv-x="1609" d="M-2 0l618 1434h373l623 -1434h-387l-105 264h-631l-102 -264h-389zM604 1667l158 330l315 -47l-239 -381zM612 584h383l-192 489z" />
<glyph unicode="&#xc2;" horiz-adv-x="1609" d="M-2 0l618 1434h373l623 -1434h-387l-105 264h-631l-102 -264h-389zM477 1634l193 279h276l191 -279l-189 -86l-139 232l-145 -234zM612 584h383l-192 489z" />
<glyph unicode="&#xc3;" horiz-adv-x="1609" d="M-2 0l618 1434h373l621 -1434h-387l-103 264h-631l-102 -264h-389zM383 1645q25 96 96.5 159t175.5 62q55 -1 108 -21t87 -43.5t72 -43t67 -19.5q76 0 117 100l156 -67q-23 -101 -93 -167.5t-174 -66.5q-51 0 -101.5 19.5t-85 42.5t-76.5 42.5t-77 20.5q-79 3 -114 -100z M612 584h383l-192 489z" />
<glyph unicode="&#xc4;" horiz-adv-x="1609" d="M-2 0l618 1434h373l623 -1434h-387l-105 264h-631l-102 -264h-389zM494 1737q0 56 38.5 93.5t94.5 37.5q55 0 94 -37.5t39 -93.5t-39.5 -94.5t-93.5 -38.5t-93.5 38.5t-39.5 94.5zM612 584h383l-192 489zM856 1737q0 56 39.5 93.5t95.5 37.5q55 0 93 -37.5t38 -93.5 t-39.5 -94.5t-91.5 -38.5q-55 0 -95 38.5t-40 94.5z" />
<glyph unicode="&#xc5;" horiz-adv-x="1609" d="M-2 0l618 1434h373l623 -1434h-387l-105 264h-631l-102 -264h-389zM518 1774q0 115 82.5 186.5t200.5 71.5q119 0 201.5 -71.5t82.5 -186.5q0 -117 -82 -184.5t-202 -67.5t-201.5 67.5t-81.5 184.5zM612 584h383l-192 489zM694 1776q0 -43 32.5 -72t76.5 -29q42 0 74 29 t32 72q0 44 -32.5 73t-75.5 29q-42 0 -74.5 -29.5t-32.5 -72.5z" />
<glyph unicode="&#xc6;" horiz-adv-x="2185" d="M0 0l819 1434h1239v-318h-702v-252h532v-289h-532v-258h749v-317h-1122v387h-371l-204 -387h-408zM776 694h207v391l-14 -30z" />
<glyph unicode="&#xc7;" horiz-adv-x="1466" d="M80 711q0 222 109 395t292 265.5t406 94.5q243 2 475 -104l-117 -297q-156 87 -325 84q-90 -2 -172 -30t-147.5 -80.5t-104.5 -136.5t-39 -189t38.5 -188.5t104 -134t147.5 -77t173 -26.5q173 0 323 92l127 -293q-193 -100 -389 -115l-135 -336l-217 78l155 262 q-143 16 -268.5 72.5t-223.5 147.5t-155 224t-57 292z" />
<glyph unicode="&#xc8;" horiz-adv-x="1359" d="M156 0v1434h1077v-318h-705v-252h533v-289h-533v-258h750v-317h-1122zM422 1933l315 45l158 -329l-233 -97z" />
<glyph unicode="&#xc9;" horiz-adv-x="1359" d="M156 0v1434h1077v-318h-705v-252h533v-289h-533v-258h750v-317h-1122zM539 1649l155 329l316 -47l-240 -381z" />
<glyph unicode="&#xca;" horiz-adv-x="1359" d="M156 0v1434h1077v-318h-705v-252h533v-289h-533v-258h750v-317h-1122zM403 1665l193 281h276l191 -281l-189 -86l-139 233l-145 -235z" />
<glyph unicode="&#xcb;" horiz-adv-x="1359" d="M156 0v1434h1077v-318h-705v-252h533v-289h-533v-258h750v-317h-1122zM406 1710q0 56 39.5 93.5t95.5 37.5q55 0 93 -37.5t38 -93.5t-39.5 -94.5t-91.5 -38.5q-55 0 -95 38.5t-40 94.5zM770 1710q0 56 38.5 93.5t94.5 37.5q55 0 94 -37.5t39 -93.5t-39.5 -94.5 t-93.5 -38.5t-93.5 38.5t-39.5 94.5z" />
<glyph unicode="&#xcc;" horiz-adv-x="675" d="M35 1933l315 45l158 -329l-234 -97zM156 0v1434h364v-1434h-364z" />
<glyph unicode="&#xcd;" horiz-adv-x="675" d="M156 0v1434h364v-1434h-364zM180 1642l156 330l315 -45l-239 -381z" />
<glyph unicode="&#xce;" horiz-adv-x="675" d="M16 1634l193 279h276l191 -279l-189 -86l-139 232l-145 -234zM156 0v1434h364v-1434h-364z" />
<glyph unicode="&#xcf;" horiz-adv-x="675" d="M41 1714q0 56 39.5 92.5t95.5 36.5q55 0 93 -36.5t38 -92.5q0 -57 -39 -95t-92 -38q-55 0 -95 38.5t-40 94.5zM156 0v1434h364v-1434h-364zM406 1714q0 56 38.5 92.5t94.5 36.5q55 0 94 -36.5t39 -92.5q0 -57 -39.5 -95t-93.5 -38t-93.5 38.5t-39.5 94.5z" />
<glyph unicode="&#xd0;" horiz-adv-x="1605" d="M37 641v215h145v578q164 6 424 6q204 -2 368 -44t289.5 -125.5t194 -221t68.5 -320.5q0 -356 -255 -546.5t-739 -190.5q-186 0 -350 8v641h-145zM551 311q67 -3 127 2q99 6 182.5 33t150.5 75.5t104.5 126.5t37.5 177q0 85 -28 152t-74 110t-109 72.5t-127.5 42.5 t-136.5 16q-53 5 -127 2v-264h242v-215h-242v-330z" />
<glyph unicode="&#xd1;" horiz-adv-x="1695" d="M156 0v1434h364l651 -873v873h369v-1434h-358l-660 868v-868h-366zM416 1645q23 96 95 159t175 62q55 -1 108 -21t87 -43.5t72 -43t67 -19.5q76 0 117 100l155 -67q-23 -101 -92.5 -167.5t-173.5 -66.5q-51 0 -101.5 19.5t-85 42.5t-76 42.5t-75.5 20.5q-79 3 -117 -100z " />
<glyph unicode="&#xd2;" horiz-adv-x="1740" d="M80 705q0 226 104.5 399.5t284 265.5t403.5 92q222 0 400.5 -91t283.5 -264t105 -398q0 -220 -98 -393t-277.5 -270t-411.5 -97q-171 0 -317.5 54.5t-251.5 152.5t-165 239.5t-60 309.5zM457 707q0 -189 113 -313t304 -124q190 0 300 124.5t110 312.5q0 190 -112 313 t-300 123q-187 0 -301 -122.5t-114 -313.5zM580 1950l315 47l156 -330l-232 -98z" />
<glyph unicode="&#xd3;" horiz-adv-x="1740" d="M80 705q0 226 104.5 399.5t284 265.5t403.5 92q222 0 400.5 -91t283.5 -264t105 -398q0 -220 -98 -393t-277.5 -270t-411.5 -97q-171 0 -317.5 54.5t-251.5 152.5t-165 239.5t-60 309.5zM457 707q0 -189 113 -313t304 -124q190 0 300 124.5t110 312.5q0 190 -112 313 t-300 123q-187 0 -301 -122.5t-114 -313.5zM635 1659l156 330l315 -45l-240 -381z" />
<glyph unicode="&#xd4;" horiz-adv-x="1740" d="M80 705q0 226 104.5 399.5t284 265.5t403.5 92q222 0 400.5 -91t283.5 -264t105 -398q0 -220 -98 -393t-277.5 -270t-411.5 -97q-171 0 -317.5 54.5t-251.5 152.5t-165 239.5t-60 309.5zM457 707q0 -189 113 -313t304 -124q190 0 300 124.5t110 312.5q0 190 -112 313 t-300 123q-187 0 -301 -122.5t-114 -313.5zM526 1634l193 279h276l191 -279l-189 -86l-139 232l-145 -234z" />
<glyph unicode="&#xd5;" horiz-adv-x="1740" d="M80 705q0 226 104.5 399.5t284 265.5t403.5 92q165 0 309.5 -53.5t250 -149.5t166.5 -238.5t61 -311.5q0 -220 -98 -393t-277.5 -270t-411.5 -97q-170 0 -316.5 54.5t-251.5 152.5t-164.5 239.5t-59.5 309.5zM420 1645q23 96 95 159t175 62q55 -1 108 -21t87 -43.5 t72 -43t67 -19.5q76 0 117 100l155 -67q-23 -101 -92.5 -167.5t-173.5 -66.5q-51 0 -101.5 19.5t-85 42.5t-76 42.5t-75.5 20.5q-79 3 -117 -100zM455 707q0 -189 113 -313t304 -124q127 0 222 59t142.5 157.5t47.5 220.5q0 190 -112.5 313t-299.5 123q-188 0 -302.5 -122.5 t-114.5 -313.5z" />
<glyph unicode="&#xd6;" horiz-adv-x="1740" d="M80 705q0 226 104.5 399.5t284 265.5t403.5 92q222 0 400.5 -91t283.5 -264t105 -398q0 -220 -98 -393t-277.5 -270t-411.5 -97q-171 0 -317.5 54.5t-251.5 152.5t-165 239.5t-60 309.5zM457 707q0 -189 113 -313t304 -124q190 0 300 124.5t110 312.5q0 190 -112 313 t-300 123q-187 0 -301 -122.5t-114 -313.5zM541 1729q0 56 38.5 93.5t94.5 37.5q55 0 94 -37.5t39 -93.5t-40 -95t-93 -39t-93 39t-40 95zM903 1729q0 56 39.5 93.5t95.5 37.5q55 0 93 -37.5t38 -93.5t-39.5 -95t-91.5 -39q-55 0 -95 39t-40 95z" />
<glyph unicode="&#xd7;" horiz-adv-x="1464" d="M129 174l397 401l-397 402l205 209l399 -404l397 404l205 -209l-397 -402l397 -401l-205 -211l-397 404l-399 -404z" />
<glyph unicode="&#xd8;" horiz-adv-x="1726" d="M80 711q0 225 104.5 399t282 266t397.5 92q133 0 248 -34l94 163l203 -120l-82 -144q150 -100 235 -259.5t85 -364.5q0 -222 -98.5 -395t-277 -269t-407.5 -96q-160 0 -297 49l-98 -174l-203 121l92 164q-132 102 -205 256t-73 346zM463 709q0 -158 84 -271l393 690 q-44 7 -76 7q-175 0 -288.5 -121t-112.5 -305zM739 301q65 -20 127 -20q118 0 210.5 58.5t142 155.5t49.5 214q0 185 -121 309z" />
<glyph unicode="&#xd9;" horiz-adv-x="1640" d="M133 621v813h373v-820q0 -144 82.5 -233.5t228.5 -89.5q147 0 232.5 90.5t85.5 234.5v818h374v-803q0 -129 -35.5 -239.5t-99 -190t-149.5 -135.5t-187.5 -83.5t-212.5 -27.5q-106 0 -204.5 24.5t-187.5 77.5t-155.5 129.5t-105.5 188t-39 246.5zM541 1927l315 45 l156 -330l-232 -96z" />
<glyph unicode="&#xda;" horiz-adv-x="1640" d="M133 621v813h373v-820q0 -144 82.5 -233.5t228.5 -89.5q147 0 232.5 90.5t85.5 234.5v818h374v-803q0 -129 -35.5 -239.5t-99 -190t-149.5 -135.5t-187.5 -83.5t-212.5 -27.5q-106 0 -204.5 24.5t-187.5 77.5t-155.5 129.5t-105.5 188t-39 246.5zM614 1649l158 329 l315 -47l-239 -381z" />
<glyph unicode="&#xdb;" horiz-adv-x="1640" d="M133 621v813h373v-820q0 -144 82.5 -233.5t228.5 -89.5q147 0 232.5 90.5t85.5 234.5v818h374v-803q0 -129 -35.5 -239.5t-99 -190t-149.5 -135.5t-187.5 -83.5t-212.5 -27.5q-106 0 -204.5 24.5t-187.5 77.5t-155.5 129.5t-105.5 188t-39 246.5zM481 1665l193 281h276 l191 -281l-189 -86l-139 233l-145 -235z" />
<glyph unicode="&#xdc;" horiz-adv-x="1640" d="M133 621v813h373v-820q0 -144 82.5 -233.5t228.5 -89.5q147 0 232.5 90.5t85.5 234.5v818h374v-803q0 -129 -35.5 -239.5t-99 -190t-149.5 -135.5t-187.5 -83.5t-212.5 -27.5q-106 0 -204.5 24.5t-187.5 77.5t-155.5 129.5t-105.5 188t-39 246.5zM496 1710 q0 56 39.5 93.5t95.5 37.5q55 0 93 -37.5t38 -93.5t-39.5 -94.5t-91.5 -38.5q-55 0 -95 38.5t-40 94.5zM860 1710q0 56 38.5 93.5t94.5 37.5q55 0 94 -37.5t39 -93.5t-39.5 -94.5t-93.5 -38.5t-93.5 38.5t-39.5 94.5z" />
<glyph unicode="&#xdd;" horiz-adv-x="1597" d="M14 1434h432l355 -547l352 547h428l-582 -883v-551h-407l-2 553zM598 1667l156 330l315 -47l-240 -381z" />
<glyph unicode="&#xde;" horiz-adv-x="1411" d="M156 0v1432l364 2v-158h187q139 -1 254.5 -32.5t206 -94t141.5 -166.5t51 -240q1 -112 -34 -205t-93 -155t-136.5 -106.5t-161.5 -66t-171 -26.5q-120 -8 -244 -8v-176h-364zM520 477q92 0 191 6q121 5 194.5 69t73.5 169t-75 169.5t-193 67.5q-9 0 -77.5 3.5t-113.5 3.5 v-488z" />
<glyph unicode="&#xdf;" horiz-adv-x="1529" d="M133 0v1124q0 112 39 201t106 143t151.5 82.5t180.5 28.5q117 0 222 -33t184.5 -93t126.5 -150t47 -197q0 -69 -20 -119.5t-50 -76t-65 -43.5t-65 -25.5t-50 -18t-20 -24.5q0 -15 7 -24t26.5 -14.5t36.5 -8t53.5 -7t62.5 -8.5q202 -33 304.5 -124t102.5 -251 q1 -191 -143 -288t-379 -97q-202 0 -407 109l92 258q175 -93 313 -90q93 1 146 29t51 73q-1 26 -17 43.5t-46.5 27.5t-61 15t-78 12.5t-78.5 14.5q-50 11 -88.5 24.5t-80.5 38.5t-69 57.5t-45 83.5t-18 115q0 61 20 108.5t49.5 74.5t64.5 51t64.5 39t49.5 35.5t20 44.5 q0 62 -67 107.5t-154 43.5q-72 -2 -121 -48.5t-49 -119.5v-1124h-348z" />
<glyph unicode="&#xe0;" d="M74 565q0 127 42.5 232.5t114 173.5t161.5 105.5t188 37.5q108 0 193 -42t140 -107l11 135h336v-1100h-326l-10 123q-131 -139 -324 -139q-101 0 -195.5 41t-168 114.5t-118 184.5t-44.5 241zM414 563q0 -129 76.5 -209t193.5 -80q130 0 231 105l-2 334q-97 125 -239 125 q-107 0 -183.5 -74.5t-76.5 -200.5zM541 1657l315 45l156 -330l-232 -96z" />
<glyph unicode="&#xe1;" d="M74 565q0 127 42.5 232.5t114 173.5t161.5 105.5t188 37.5q108 0 193 -42t140 -107l11 135h336v-1100h-326l-10 123q-131 -139 -324 -139q-101 0 -195.5 41t-168 114.5t-118 184.5t-44.5 241zM414 563q0 -129 76.5 -209t193.5 -80q130 0 231 105l-2 334q-97 125 -239 125 q-107 0 -183.5 -74.5t-76.5 -200.5zM551 1372l156 330l315 -45l-240 -381z" />
<glyph unicode="&#xe2;" d="M74 565q0 127 42.5 232.5t114 173.5t161.5 105.5t188 37.5q108 0 193 -42t140 -107l11 135h336v-1100h-326l-10 123q-131 -139 -324 -139q-101 0 -195.5 41t-168 114.5t-118 184.5t-44.5 241zM414 563q0 -129 76.5 -209t193.5 -80q130 0 231 105l-2 334q-97 125 -239 125 q-107 0 -183.5 -74.5t-76.5 -200.5zM424 1339l192 281h275l192 -281l-188 -86l-141 234l-146 -236z" />
<glyph unicode="&#xe3;" d="M72 565q0 127 43 233t114.5 173.5t161.5 105t187 37.5q108 0 193 -42t142 -107l11 135h336v-1100h-328l-10 123q-54 -59 -137 -99t-187 -40q-100 0 -194.5 41t-168.5 114.5t-118.5 184.5t-44.5 241zM330 1350q24 97 95.5 160t174.5 63q55 -1 108.5 -21t87 -44t72 -44 t68.5 -20q73 0 115 102l157 -67q-25 -103 -94 -169.5t-172 -66.5q-51 0 -102 19.5t-85.5 43t-76 43t-76.5 19.5q-80 6 -115 -98zM412 563q0 -129 77 -209t193 -80q130 0 231 105v334q-45 58 -108 91.5t-133 33.5q-107 0 -183.5 -74.5t-76.5 -200.5z" />
<glyph unicode="&#xe4;" d="M74 565q0 127 42.5 232.5t114 173.5t161.5 105.5t188 37.5q108 0 193 -42t140 -107l11 135h336v-1100h-326l-10 123q-131 -139 -324 -139q-101 0 -195.5 41t-168 114.5t-118 184.5t-44.5 241zM414 563q0 -129 76.5 -209t193.5 -80q130 0 231 105l-2 334q-97 125 -239 125 q-107 0 -183.5 -74.5t-76.5 -200.5zM438 1444q0 56 39.5 92.5t95.5 36.5q55 0 93.5 -36.5t38.5 -92.5q0 -57 -39.5 -95t-92.5 -38q-55 0 -95 38.5t-40 94.5zM803 1444q0 56 38.5 92.5t94.5 36.5q55 0 94 -36.5t39 -92.5q0 -57 -39.5 -95t-93.5 -38t-93.5 38.5t-39.5 94.5z " />
<glyph unicode="&#xe5;" d="M74 565q0 127 42.5 232.5t114 173.5t161.5 105.5t188 37.5q108 0 193 -42t140 -107l11 135h336v-1100h-326l-10 123q-131 -139 -324 -139q-101 0 -195.5 41t-168 114.5t-118 184.5t-44.5 241zM414 563q0 -129 76.5 -209t193.5 -80q130 0 231 105l-2 334q-97 125 -239 125 q-107 0 -183.5 -74.5t-76.5 -200.5zM465 1481q0 114 82 185t201 71q118 0 200 -71t82 -185q0 -118 -81 -186t-201 -68q-121 0 -202 67.5t-81 186.5zM641 1483q0 -44 32 -73.5t75 -29.5t74.5 29.5t31.5 73.5q0 43 -32.5 71.5t-76.5 28.5q-41 0 -72.5 -29t-31.5 -71z" />
<glyph unicode="&#xe6;" horiz-adv-x="2207" d="M72 565q0 127 44 232.5t118.5 174t169 105.5t198.5 37q116 0 228 -51t202 -162q84 112 220 171.5t298 57.5q108 -1 202 -29.5t161.5 -77.5t119 -115t75 -140.5t28.5 -155t-20 -159.5h-828q33 -95 118.5 -144t199.5 -47q169 2 350 131l151 -239q-81 -68 -219.5 -120 t-298.5 -52q-163 0 -307.5 58t-237.5 169q-90 -119 -203 -172t-229 -53q-106 0 -203 41t-172 114.5t-120 184.5t-45 241zM412 563q0 -129 77 -209t193 -80q130 0 231 105v334q-45 58 -108 91.5t-133 33.5q-107 0 -183.5 -74.5t-76.5 -200.5zM1290 690h502q-3 72 -67.5 122 t-168.5 50q-96 0 -165.5 -45t-100.5 -127z" />
<glyph unicode="&#xe7;" horiz-adv-x="1230" d="M74 549q-1 109 33.5 203.5t94 163t139.5 118t173 74t191 25.5q260 0 469 -160l-160 -260q-49 58 -122 92.5t-159 34.5q-136 0 -222.5 -83.5t-88.5 -205.5q-1 -125 87 -207t220 -82q166 0 279 125l161 -250q-181 -143 -399 -162l-125 -311l-217 80l143 238 q-103 19 -192 65t-157.5 115.5t-108 169.5t-39.5 217z" />
<glyph unicode="&#xe8;" horiz-adv-x="1347" d="M74 561q0 131 49.5 240t134.5 181t199 110.5t243 37.5q108 -1 202 -29.5t161.5 -77.5t119 -115t75 -140.5t28.5 -155t-20 -159.5h-826q31 -95 116 -144t200 -47q182 2 350 133l151 -239q-82 -69 -219 -121.5t-299 -52.5q-102 0 -197.5 22.5t-180.5 70t-149 115t-101 163 t-37 208.5zM442 690h502q-3 72 -67 122t-168 50q-97 0 -167.5 -45t-99.5 -127zM442 1665l316 45l155 -330l-231 -96z" />
<glyph unicode="&#xe9;" horiz-adv-x="1347" d="M74 561q0 131 49.5 240t134.5 181t199 110.5t243 37.5q108 -1 202 -29.5t161.5 -77.5t119 -115t75 -140.5t28.5 -155t-20 -159.5h-826q31 -95 116 -144t200 -47q182 2 350 133l151 -239q-82 -69 -219 -121.5t-299 -52.5q-102 0 -197.5 22.5t-180.5 70t-149 115t-101 163 t-37 208.5zM442 690h502q-3 72 -67 122t-168 50q-97 0 -167.5 -45t-99.5 -127zM547 1372l155 330l316 -47l-240 -381z" />
<glyph unicode="&#xea;" horiz-adv-x="1347" d="M74 561q0 131 49.5 240t134.5 181t199 110.5t243 37.5q108 -1 202 -29.5t161.5 -77.5t119 -115t75 -140.5t28.5 -155t-20 -159.5h-826q31 -95 116 -144t200 -47q182 2 350 133l151 -239q-82 -69 -219 -121.5t-299 -52.5q-102 0 -197.5 22.5t-180.5 70t-149 115t-101 163 t-37 208.5zM373 1364l192 278h277l190 -278l-188 -86l-139 231l-146 -233zM442 690h502q-3 72 -67 122t-168 50q-97 0 -167.5 -45t-99.5 -127z" />
<glyph unicode="&#xeb;" horiz-adv-x="1347" d="M74 561q0 131 49.5 240t134.5 181t199 110.5t243 37.5q108 -1 202 -29.5t161.5 -77.5t119 -115t75 -140.5t28.5 -155t-20 -159.5h-826q31 -95 116 -144t200 -47q182 2 350 133l151 -239q-82 -69 -219 -121.5t-299 -52.5q-102 0 -197.5 22.5t-180.5 70t-149 115t-101 163 t-37 208.5zM395 1432q0 56 38.5 93.5t94.5 37.5q55 0 94.5 -37.5t39.5 -93.5t-40 -95t-94 -39q-53 0 -93 39t-40 95zM442 690h502q-3 72 -67 122t-168 50q-97 0 -167.5 -45t-99.5 -127zM758 1432q0 56 39.5 93.5t95.5 37.5q55 0 93 -37.5t38 -93.5t-39.5 -95t-91.5 -39 q-55 0 -95 39t-40 95z" />
<glyph unicode="&#xec;" horiz-adv-x="598" d="M96 1616l316 45l157 -330l-233 -96zM125 0v1100h348v-1100h-348z" />
<glyph unicode="&#xed;" horiz-adv-x="598" d="M106 1331l158 330l316 -45l-240 -381zM125 0v1100h348v-1100h-348z" />
<glyph unicode="&#xee;" horiz-adv-x="598" d="M-20 1298l192 281h277l190 -281l-188 -86l-140 234l-145 -236zM125 0v1100h348v-1100h-348z" />
<glyph unicode="&#xef;" horiz-adv-x="598" d="M-6 1403q0 56 39.5 92.5t95.5 36.5q55 0 94 -36.5t39 -92.5q0 -57 -39.5 -95t-93.5 -38t-94.5 38.5t-40.5 94.5zM125 0v1100h348v-1100h-348zM358 1403q0 56 39.5 92.5t96.5 36.5q55 0 93 -36.5t38 -92.5q0 -57 -39 -95t-92 -38q-55 0 -95.5 38.5t-40.5 94.5z" />
<glyph unicode="&#xf0;" horiz-adv-x="1333" d="M76 459q-10 131 46.5 242.5t163 178.5t238.5 72q190 9 353 -110q-53 142 -177 226.5t-274 100.5l84 318q159 -21 303 -92l141 198l263 -182l-148 -207q178 -191 201 -465q15 -162 -26 -301.5t-122.5 -234.5t-191.5 -153t-234 -70q-155 -14 -293 42.5t-227 172.5t-100 264 zM432 475q6 -86 69 -136.5t150 -45.5q93 4 161.5 74.5t90.5 183.5q-51 67 -121.5 100.5t-140.5 30.5q-91 -3 -152 -61.5t-57 -145.5z" />
<glyph unicode="&#xf1;" d="M113 0v1100h331l13 -168q178 186 379 186q86 0 162.5 -29t138.5 -86t98.5 -151.5t36.5 -214.5v-637h-352l2 602q0 106 -53 167.5t-142 61.5q-80 0 -151 -48t-119 -119l-2 -664h-342zM264 1386q25 96 97 159.5t174 62.5q55 -1 108 -21t86.5 -43.5t72 -43t68.5 -19.5 q74 0 115 100l158 -68q-25 -102 -94 -167.5t-172 -65.5q-51 0 -102 19.5t-85.5 42.5t-76 42.5t-76.5 20.5q-80 3 -115 -100z" />
<glyph unicode="&#xf2;" horiz-adv-x="1392" d="M74 555q0 248 177.5 410.5t446.5 162.5q124 0 236.5 -40t198 -112.5t136 -182t50.5 -240.5q0 -137 -52.5 -248t-140.5 -180.5t-198 -106t-230 -36.5q-127 0 -240 39.5t-198.5 111.5t-135.5 181.5t-50 240.5zM422 553q1 -129 82 -204t194 -75q110 0 191.5 75t81.5 204 q0 133 -81 208t-192 75q-114 0 -195 -76.5t-81 -206.5zM475 1618l316 47l157 -330l-233 -98z" />
<glyph unicode="&#xf3;" horiz-adv-x="1392" d="M74 555q0 248 177.5 410.5t446.5 162.5q124 0 236.5 -40t198 -112.5t136 -182t50.5 -240.5q0 -137 -52.5 -248t-140.5 -180.5t-198 -106t-230 -36.5q-127 0 -240 39.5t-198.5 111.5t-135.5 181.5t-50 240.5zM422 553q1 -129 82 -204t194 -75q110 0 191.5 75t81.5 204 q0 133 -81 208t-192 75q-114 0 -195 -76.5t-81 -206.5zM485 1335l158 330l315 -47l-239 -381z" />
<glyph unicode="&#xf4;" horiz-adv-x="1392" d="M74 555q0 248 177.5 410.5t446.5 162.5q124 0 236.5 -40t198 -112.5t136 -182t50.5 -240.5q0 -137 -52.5 -248t-140.5 -180.5t-198 -106t-230 -36.5q-127 0 -240 39.5t-198.5 111.5t-135.5 181.5t-50 240.5zM358 1303l193 278h276l191 -278l-189 -86l-139 231l-145 -234z M422 553q1 -129 82 -204t194 -75q110 0 191.5 75t81.5 204q0 133 -81 208t-192 75q-114 0 -195 -76.5t-81 -206.5z" />
<glyph unicode="&#xf5;" horiz-adv-x="1392" d="M72 555q0 163 81.5 294.5t224.5 205t320 73.5q124 0 236.5 -40t198 -112.5t136 -182t50.5 -240.5q0 -137 -52.5 -248t-140.5 -180.5t-198 -106t-230 -36.5q-128 0 -241.5 39.5t-199 111.5t-135.5 181t-50 241zM266 1313q23 96 95.5 159t175.5 62q55 -1 108 -21 t86.5 -43.5t71.5 -43t67 -19.5q76 0 117 100l156 -67q-23 -101 -92.5 -167.5t-173.5 -66.5q-51 0 -101.5 19.5t-85 42.5t-76 42.5t-75.5 20.5q-79 3 -117 -100zM422 553q0 -129 80.5 -204t195.5 -75q109 0 190 75t81 204q0 133 -80 208t-191 75q-116 0 -196.5 -76.5 t-79.5 -206.5z" />
<glyph unicode="&#xf6;" horiz-adv-x="1392" d="M74 555q0 248 177.5 410.5t446.5 162.5q124 0 236.5 -40t198 -112.5t136 -182t50.5 -240.5q0 -137 -52.5 -248t-140.5 -180.5t-198 -106t-230 -36.5q-127 0 -240 39.5t-198.5 111.5t-135.5 181.5t-50 240.5zM375 1405q0 56 38.5 93.5t94.5 37.5q55 0 94 -37.5t39 -93.5 t-39.5 -94.5t-93.5 -38.5t-93.5 38.5t-39.5 94.5zM422 553q1 -129 82 -204t194 -75q110 0 191.5 75t81.5 204q0 133 -81 208t-192 75q-114 0 -195 -76.5t-81 -206.5zM737 1405q0 56 39.5 93.5t95.5 37.5q55 0 93.5 -37.5t38.5 -93.5t-40 -94.5t-92 -38.5q-55 0 -95 38.5 t-40 94.5z" />
<glyph unicode="&#xf7;" horiz-adv-x="1382" d="M117 492v180h1147v-180h-1147zM553 186q0 58 40 98t99 40h4q51 0 92 -40.5t41 -97.5q0 -55 -42 -99t-95 -44q-57 0 -98 43t-41 100zM557 977q0 57 41.5 99t95.5 42q57 0 98.5 -42t41.5 -99q0 -56 -41.5 -96.5t-98.5 -40.5h-4q-52 0 -92.5 41t-40.5 96z" />
<glyph unicode="&#xf8;" horiz-adv-x="1376" d="M72 555q0 164 79.5 295t220 204.5t316.5 73.5q80 0 172 -20l74 137l186 -92l-67 -129q116 -74 183 -195.5t67 -275.5q0 -111 -33.5 -204.5t-91.5 -160t-136.5 -113t-168 -69t-185.5 -22.5q-92 0 -174 18l-78 -147l-188 92l74 137q-117 73 -183.5 193.5t-66.5 277.5z M373 553q0 -134 80 -217l280 530q-28 4 -43 4q-134 0 -225.5 -86t-91.5 -231zM641 242q16 -2 49 -2q130 0 219.5 83.5t89.5 229.5q0 134 -77 221z" />
<glyph unicode="&#xf9;" horiz-adv-x="1335" d="M104 416v684h349v-660q0 -83 49 -130.5t125 -47.5q75 0 139.5 44t107.5 100v694h349v-1100h-322l-16 137q-172 -172 -375 -172q-170 0 -288 122t-118 329zM385 1669l315 47l156 -330l-231 -98z" />
<glyph unicode="&#xfa;" horiz-adv-x="1335" d="M104 416v684h349v-660q0 -83 49 -130.5t125 -47.5q75 0 139.5 44t107.5 100v694h349v-1100h-322l-16 137q-172 -172 -375 -172q-170 0 -288 122t-118 329zM489 1358l156 330l316 -48l-240 -380z" />
<glyph unicode="&#xfb;" horiz-adv-x="1335" d="M104 416v684h349v-660q0 -83 49 -130.5t125 -47.5q75 0 139.5 44t107.5 100v694h349v-1100h-322l-16 137q-172 -172 -375 -172q-170 0 -288 122t-118 329zM334 1372l192 281h277l190 -281l-188 -86l-139 234l-146 -236z" />
<glyph unicode="&#xfc;" horiz-adv-x="1335" d="M104 416v684h349v-660q0 -83 49 -130.5t125 -47.5q75 0 139.5 44t107.5 100v694h349v-1100h-322l-16 137q-172 -172 -375 -172q-170 0 -288 122t-118 329zM330 1460q0 56 39.5 93.5t95.5 37.5q55 0 93 -37.5t38 -93.5t-39.5 -94.5t-91.5 -38.5q-55 0 -95 38.5t-40 94.5z M694 1460q0 56 38.5 93.5t94.5 37.5q55 0 94.5 -37.5t39.5 -93.5t-40 -94.5t-94 -38.5t-93.5 38.5t-39.5 94.5z" />
<glyph unicode="&#xfd;" horiz-adv-x="1368" d="M-2 1100h383l321 -727l326 727h381l-809 -1723h-383l299 627zM483 1331l158 330l315 -45l-239 -381z" />
<glyph unicode="&#xfe;" horiz-adv-x="1415" d="M145 -395v1829h349v-455q66 58 158.5 97.5t193.5 39.5q95 0 182 -36.5t158 -106.5t113 -184t42 -257q0 -137 -40 -244.5t-107 -172.5t-148.5 -98t-171.5 -33q-110 0 -212.5 43.5t-169.5 105.5v-528h-347zM487 375q113 -113 250 -113q108 0 183 74t75 203 q0 127 -77.5 206.5t-194.5 79.5q-134 0 -236 -98v-352z" />
<glyph unicode="&#xff;" horiz-adv-x="1368" d="M-2 1100h383l321 -727l326 727h381l-809 -1723h-383l299 627zM373 1403q0 56 38.5 92.5t94.5 36.5q55 0 94 -36.5t39 -92.5q0 -57 -39.5 -95t-93.5 -38t-93.5 38.5t-39.5 94.5zM735 1403q0 56 39.5 92.5t95.5 36.5q55 0 93 -36.5t38 -92.5q0 -57 -39 -95t-92 -38 q-55 0 -95 38.5t-40 94.5z" />
<glyph unicode="&#x152;" horiz-adv-x="2598" d="M80 705q0 225 104.5 398t284 265t403.5 92q312 0 525 -170v144h1075v-318h-703v-252h533v-289h-533v-258h750v-317h-1122v119q-211 -170 -523 -170q-228 0 -408.5 93t-283 265.5t-102.5 397.5zM457 705q0 -189 113 -313t304 -124q190 0 300 125t110 314q0 190 -112 312 t-300 122q-187 0 -301 -122.5t-114 -313.5z" />
<glyph unicode="&#x153;" horiz-adv-x="2328" d="M72 553q0 164 81.5 295.5t224.5 204.5t320 73q139 0 262.5 -49t210.5 -139q86 98 216 151t282 52q93 -1 175.5 -22.5t146 -59t114.5 -88t83.5 -111t50 -126t16 -135t-20.5 -136.5h-825q31 -95 116 -144t199 -47q170 2 351 131l151 -239q-81 -68 -219.5 -120t-298.5 -52 q-151 0 -287 50t-229 146q-87 -100 -218 -153t-276 -53q-128 0 -241.5 39t-199 110.5t-135.5 180.5t-50 241zM422 553q0 -129 80.5 -204t195.5 -75q109 0 190 75t81 204q0 133 -80 208t-191 75q-116 0 -196.5 -76.5t-79.5 -206.5zM1411 700h500q-3 72 -67.5 122t-168.5 50 q-95 0 -165 -45t-99 -127z" />
<glyph unicode="&#x178;" horiz-adv-x="1597" d="M14 1434h432l355 -547l352 547h428l-582 -883v-551h-407l-2 553zM485 1737q0 56 40 93.5t96 37.5q55 0 93 -37.5t38 -93.5t-39.5 -94.5t-91.5 -38.5q-55 0 -95.5 38.5t-40.5 94.5zM850 1737q0 56 38.5 93.5t94.5 37.5q55 0 94 -37.5t39 -93.5t-39.5 -94.5t-93.5 -38.5 t-93.5 38.5t-39.5 94.5z" />
<glyph unicode="&#x2c6;" horiz-adv-x="1300" d="M586 1634l192 279h275l192 -279l-188 -86l-142 232l-145 -234z" />
<glyph unicode="&#x2dc;" horiz-adv-x="1339" d="M483 1645q23 96 95.5 159t175.5 62q55 -1 108 -21t86.5 -43.5t71.5 -43t67 -19.5q76 0 117 100l156 -67q-23 -101 -92.5 -167.5t-173.5 -66.5q-51 0 -101.5 19.5t-85 42.5t-76 42.5t-75.5 20.5q-79 3 -117 -100z" />
<glyph unicode="&#x2000;" horiz-adv-x="1016" />
<glyph unicode="&#x2001;" horiz-adv-x="2032" />
<glyph unicode="&#x2002;" horiz-adv-x="1016" />
<glyph unicode="&#x2003;" horiz-adv-x="2032" />
<glyph unicode="&#x2004;" horiz-adv-x="677" />
<glyph unicode="&#x2005;" horiz-adv-x="508" />
<glyph unicode="&#x2006;" horiz-adv-x="338" />
<glyph unicode="&#x2007;" horiz-adv-x="338" />
<glyph unicode="&#x2008;" horiz-adv-x="254" />
<glyph unicode="&#x2009;" horiz-adv-x="406" />
<glyph unicode="&#x200a;" horiz-adv-x="112" />
<glyph unicode="&#x2010;" horiz-adv-x="847" d="M61 582v288h725v-288h-725z" />
<glyph unicode="&#x2011;" horiz-adv-x="847" d="M61 582v288h725v-288h-725z" />
<glyph unicode="&#x2012;" horiz-adv-x="847" d="M61 582v288h725v-288h-725z" />
<glyph unicode="&#x2013;" horiz-adv-x="980" d="M61 582v288h859v-288h-859z" />
<glyph unicode="&#x2014;" horiz-adv-x="1253" d="M61 582v288h1131v-288h-1131z" />
<glyph unicode="&#x2018;" horiz-adv-x="327" d="M-31 1270q-25 115 45 220t197 140l12 -102q-36 -14 -60 -46t-24 -73q53 24 110.5 -5.5t74.5 -98.5q14 -66 -24 -123t-105 -72q-76 -16 -141 27.5t-85 132.5z" />
<glyph unicode="&#x2019;" horiz-adv-x="327" d="M4 1534q-15 67 23 123.5t106 71.5q76 18 140.5 -25t82.5 -133q26 -116 -43 -221t-196 -140l-13 101q36 16 60 47.5t24 73.5q-53 -26 -110 4t-74 98z" />
<glyph unicode="&#x201a;" horiz-adv-x="473" d="M61 139q0 70 50 118t122 48q78 0 132.5 -57t54.5 -148q0 -122 -92 -211.5t-226 -95.5l11 105q39 6 69.5 31.5t40.5 66.5q-59 -12 -110.5 30t-51.5 113z" />
<glyph unicode="&#x201c;" horiz-adv-x="720" d="M-31 1270q-25 115 45 220t197 140l12 -102q-36 -14 -60 -46t-24 -73q53 24 110.5 -5.5t74.5 -98.5q14 -66 -24 -123t-105 -72q-76 -16 -141 27.5t-85 132.5zM365 1270q-25 115 44 220t195 140l14 -102q-37 -14 -61 -46t-25 -73q55 24 113 -5.5t72 -98.5q15 -66 -23 -123 t-106 -72q-75 -16 -139 27.5t-84 132.5z" />
<glyph unicode="&#x201d;" horiz-adv-x="731" d="M4 1534q-15 67 23 123.5t106 71.5q76 18 140.5 -25t82.5 -133q26 -116 -43 -221t-196 -140l-13 101q36 16 60 47.5t24 73.5q-53 -26 -110 4t-74 98zM410 1534q-15 67 23 123.5t106 71.5q74 18 138.5 -25t84.5 -133q25 -116 -44 -221t-196 -140l-14 101q37 16 61 47.5 t25 73.5q-54 -26 -111.5 4t-72.5 98z" />
<glyph unicode="&#x201e;" horiz-adv-x="886" d="M61 139q0 70 50 118t122 48q78 0 132.5 -57t54.5 -148q0 -122 -92 -211.5t-226 -95.5l11 105q39 6 69.5 31.5t40.5 66.5q-59 -12 -110.5 30t-51.5 113zM475 139q0 70 49.5 118t120.5 48q77 0 131.5 -57t54.5 -148q0 -122 -91 -211.5t-224 -95.5l8 105q40 6 70.5 31.5 t40.5 66.5q-59 -12 -109.5 30t-50.5 113z" />
<glyph unicode="&#x2022;" horiz-adv-x="829" d="M207 690q0 87 61.5 150t147.5 63q87 0 149 -63t62 -150q0 -90 -62.5 -152.5t-148.5 -62.5t-147.5 63t-61.5 152z" />
<glyph unicode="&#x2026;" horiz-adv-x="1460" d="M61 162q0 75 55.5 131.5t131.5 56.5t130 -56t54 -132q0 -79 -55 -135t-129 -56q-76 0 -131.5 56.5t-55.5 134.5zM553 162q0 75 54.5 131.5t129.5 56.5q76 0 131.5 -56.5t55.5 -131.5q0 -79 -55.5 -135t-131.5 -56q-75 0 -129.5 56.5t-54.5 134.5zM1036 162q0 75 55 131.5 t130 56.5q76 0 131 -56t55 -132q0 -79 -55 -135t-131 -56q-75 0 -130 56.5t-55 134.5z" />
<glyph unicode="&#x202f;" horiz-adv-x="406" />
<glyph unicode="&#x2039;" horiz-adv-x="847" d="M37 553l467 547h321l-467 -547l476 -553h-324z" />
<glyph unicode="&#x203a;" horiz-adv-x="905" d="M31 0l473 553l-467 547h321l469 -547l-475 -553h-321z" />
<glyph unicode="&#x205f;" horiz-adv-x="508" />
<glyph unicode="&#x20ac;" horiz-adv-x="1421" d="M45 651h109q-4 46 -4 68l2 29h-107l2 184h127q60 253 251 398t437 145q250 0 447 -140l-115 -248q-142 99 -291 99q-127 0 -223 -66t-141 -188h456l-2 -184h-489v-27q0 -47 2 -70h487l2 -180h-440q48 -104 137.5 -162.5t206.5 -58.5q169 0 307 110l119 -241 q-193 -160 -465 -160q-242 0 -427 134.5t-251 377.5h-135z" />
<glyph unicode="&#x2122;" horiz-adv-x="2213" d="M33 1139v295h915v-295h-299v-611h-317v611h-299zM1020 528v906h291l260 -349l268 349h293v-906h-317v416l-246 -321l-232 317v-412h-317z" />
<glyph unicode="&#x25fc;" horiz-adv-x="1095" d="M0 0v1096h1096v-1096h-1096z" />
</font>
</defs>
</svg>
